<?xml version="1.0" encoding="utf-8"?>
<!-- Generator: Adobe Illustrator 16.0.0, SVG Export Plug-In . SVG Version: 6.00 Build 0)  -->
<!DOCTYPE svg PUBLIC "-//W3C//DTD SVG 1.1//EN" "http://www.w3.org/Graphics/SVG/1.1/DTD/svg11.dtd">
<svg version="1.1" id="Capa_1" xmlns="http://www.w3.org/2000/svg" xmlns:xlink="http://www.w3.org/1999/xlink" x="0px" y="0px"
	 width="350px" height="285px" viewBox="0 0 350 285" enable-background="new 0 0 350 285" xml:space="preserve">
<path fill="#F09E09" d="M105.532,1c-6.887,0-12.484,5.599-12.484,12.478V162.97h61.594l19.142-25.25l19.176,25.25h49.084
	c6.883,0,12.476-5.6,12.476-12.479V1H105.532z M246.465,150.49c0,2.438-1.99,4.422-4.421,4.422H197.15l-23.366-29.828l-23.36,29.828
	h-49.322V13.478c0-2.435,1.988-4.418,4.43-4.418h140.933V150.49z"/>
<polygon fill="#777777" points="173.79,96.677 205.222,136.718 228.303,136.718 185.332,81.978 "/>
<polygon fill="#777777" points="142.359,27.236 119.279,27.236 162.25,81.976 173.79,67.276 "/>
<polygon fill="#948F8D" points="119.279,136.718 142.359,136.718 162.292,111.321 162.25,81.978 "/>
<polygon fill="#948F8D" points="228.303,27.236 205.22,27.236 185.372,52.466 185.33,81.976 "/>
<polygon fill="#948F8D" points="173.79,67.276 162.25,81.978 173.79,96.677 185.332,81.978 "/>
<polygon fill="#F4B54C" points="348.146,213.415 338.492,213.415 318.355,237.669 318.355,249.284 "/>
<polygon fill="#F4B54C" points="278.901,285.164 288.547,285.164 308.699,260.899 308.699,249.286 "/>
<polygon fill="#F09E09" points="348.153,285.164 318.352,249.286 313.521,255.091 338.496,285.164 "/>
<polygon fill="#F09E09" points="288.554,213.415 278.901,213.415 308.699,249.284 313.521,243.478 "/>
<polygon fill="#F4B54C" points="313.521,243.478 308.699,249.286 313.521,255.091 318.355,249.286 "/>
<path fill="#777777" d="M8.451,276.598v-63.375H0v66.753c0.058,2.795,2.325,5.044,5.121,5.075v0.002h40.615v-8.455H8.451z"/>
<path fill="#777777" d="M127.224,285.109l-26.863-67.113c-0.597-1.701-1.816-3.103-3.38-3.939v-0.009l-0.016,0.009
	c-0.994-0.537-2.141-0.837-3.353-0.837c-1.169,0-2.286,0.287-3.257,0.788L90.323,214l0.01,0.021
	c-1.563,0.807-2.783,2.174-3.413,3.83l-0.004,0.008l-26.932,67.195h8.58l25.092-62.692l24.999,62.747H127.224z"/>
<path fill="#777777" d="M213.244,213.376l-8.647-0.034l0.046,60.312l-60.508-60.41l-0.094-0.167l-0.102,71.92h8.576l-0.012-50.36
	l48.2,47.921l0.068,0.039c1.764,1.47,2.882,2.292,4.803,2.442l0.112,0.057v-0.043c0.146,0.008,0.288,0.043,0.442,0.043
	c3.841,0,6.953-3.067,7.061-6.887h0.004v-0.061c0-0.047,0.012-0.09,0.012-0.133c0-0.045-0.012-0.086-0.012-0.129L213.244,213.376z"
	/>
<rect x="246.03" y="213.484" fill="#777777" width="8.578" height="71.602"/>
</svg>
